<?xml version="1.0" encoding="iso-8859-1"?>
<!-- Generator: Adobe Illustrator 16.0.0, SVG Export Plug-In . SVG Version: 6.00 Build 0)  -->
<!DOCTYPE svg PUBLIC "-//W3C//DTD SVG 1.1//EN" "http://www.w3.org/Graphics/SVG/1.1/DTD/svg11.dtd">
<svg version="1.1" id="Layer_1" xmlns="http://www.w3.org/2000/svg" xmlns:xlink="http://www.w3.org/1999/xlink" x="0px" y="0px"
	 width="68.08px" height="12.312px" viewBox="0 0 68.08 12.312" style="enable-background:new 0 0 68.08 12.312;"
	 xml:space="preserve">
<path d="M-36.589-5.642c-0.917-7.863-7.117-13.01-14.62-13.01c-7.483,0-13.669,5.12-14.611,12.948
	c-6.812,1.033-12.059,6.865-12.059,13.971c0,8.439,8.534,21.194,28.35,8.561c2.58,3.489,6.75,5.689,11.45,5.689
	c7.83,0,14.21-6.38,14.21-14.22C-23.869,3.065-27.534-5.267-36.589-5.642z M-51.209-15.652c5.886,0,10.761,4.165,11.606,10.175
	c-3.547,0.488-7.76,2.066-12.727,5.224c-2.419-3.213-6.179-5.311-10.436-5.577C-61.781-11.65-56.979-15.652-51.209-15.652z
	 M-38.079,19.517c-3.61,0-6.83-1.75-8.87-4.399c2.07-1.431,3.79-2.74,4.84-3.58c0.74,0.58,1.67,0.93,2.69,0.93
	c2.41,0,4.38-1.96,4.38-4.37s-1.97-4.38-4.38-4.38s-4.37,1.97-4.37,4.38c0,0.3,0.03,0.6,0.09,0.88c-1.21,0.97-2.87,2.24-4.76,3.55
	c-0.83,0.57-1.69,1.15-2.58,1.73c-18.103,11.438-23.84-0.045-23.84-5.96c0-6.18,5.03-11.18,11.21-11.18c3.55,0,6.71,1.74,8.76,4.35
	c-2.02,1.4-3.689,2.68-4.729,3.5c-0.74-0.58-1.67-0.94-2.69-0.94c-2.41,0-4.38,1.96-4.38,4.37s1.97,4.38,4.38,4.38
	s4.37-1.97,4.37-4.38c0-0.3-0.03-0.6-0.09-0.88c1.189-0.96,2.82-2.2,4.68-3.49c0.82-0.569,1.69-1.149,2.58-1.72
	c18.084-11.566,23.92-0.081,23.92,5.89C-26.869,14.377-31.899,19.517-38.079,19.517z M-40.789,8.097c0-0.76,0.61-1.38,1.37-1.38
	s1.38,0.62,1.38,1.38s-0.62,1.37-1.38,1.37S-40.789,8.856-40.789,8.097z M-60.959,8.396c0,0.76-0.61,1.38-1.37,1.38
	s-1.38-0.62-1.38-1.38s0.62-1.37,1.38-1.37S-60.959,7.637-60.959,8.396z"/>
<path d="M12.349,3.891C12.076,1.539,10.221,0,7.977,0c-2.238,0-4.088,1.531-4.37,3.873C1.569,4.182,0,5.924,0,8.051
	c0,2.524,2.554,6.338,8.479,2.56c0.771,1.043,2.02,1.701,3.426,1.701c2.341,0,4.249-1.908,4.249-4.25
	C16.154,6.495,15.059,4.002,12.349,3.891z M7.977,0.897c1.761,0,3.219,1.246,3.472,3.042c-1.062,0.146-2.32,0.619-3.807,1.563
	c-0.724-0.96-1.848-1.588-3.12-1.668C4.815,2.094,6.251,0.897,7.977,0.897z M11.905,11.415c-1.081,0-2.043-0.523-2.655-1.316
	c0.62-0.427,1.135-0.819,1.449-1.069c0.222,0.173,0.498,0.277,0.805,0.277c0.719,0,1.31-0.586,1.31-1.306
	c0-0.722-0.591-1.312-1.31-1.312c-0.722,0-1.308,0.59-1.308,1.312c0,0.088,0.008,0.179,0.027,0.263
	C9.862,8.553,9.364,8.932,8.8,9.325C8.552,9.497,8.294,9.668,8.028,9.843c-5.415,3.422-7.132-0.014-7.132-1.781
	c0-1.851,1.506-3.345,3.353-3.345c1.063,0,2.009,0.52,2.622,1.299c-0.604,0.42-1.104,0.802-1.416,1.048
	C5.233,6.892,4.957,6.782,4.65,6.782c-0.721,0-1.31,0.585-1.31,1.307s0.589,1.31,1.31,1.31c0.722,0,1.308-0.588,1.308-1.31
	c0-0.088-0.008-0.179-0.027-0.263c0.357-0.287,0.845-0.658,1.4-1.044C7.576,6.61,7.837,6.439,8.104,6.268
	c5.409-3.459,7.154-0.024,7.154,1.762C15.258,9.878,13.752,11.415,11.905,11.415z M11.094,8.001c0-0.227,0.183-0.413,0.41-0.413
	c0.227,0,0.413,0.187,0.413,0.413c0,0.226-0.187,0.41-0.413,0.41C11.276,8.411,11.094,8.227,11.094,8.001z M5.061,8.089
	c0,0.228-0.183,0.413-0.41,0.413c-0.227,0-0.413-0.186-0.413-0.413s0.187-0.41,0.413-0.41C4.878,7.679,5.061,7.861,5.061,8.089z"/>
<g>
	<path d="M22.174,7.604l1.235,0.393c-0.189,0.688-0.504,1.199-0.944,1.533c-0.441,0.335-1,0.502-1.677,0.502
		c-0.838,0-1.526-0.286-2.066-0.858c-0.539-0.573-0.809-1.355-0.809-2.348c0-1.05,0.271-1.866,0.813-2.447
		c0.542-0.581,1.255-0.871,2.14-0.871c0.771,0,1.397,0.228,1.88,0.685c0.287,0.269,0.502,0.657,0.646,1.161l-1.262,0.301
		c-0.075-0.327-0.23-0.585-0.468-0.775c-0.236-0.189-0.523-0.284-0.862-0.284c-0.468,0-0.847,0.168-1.139,0.503
		c-0.29,0.336-0.436,0.88-0.436,1.631c0,0.797,0.143,1.365,0.43,1.703c0.286,0.34,0.66,0.509,1.119,0.509
		c0.339,0,0.63-0.107,0.874-0.322C21.893,8.404,22.067,8.066,22.174,7.604z"/>
	<path d="M24.493,9.924v-6.31h1.21v6.31H24.493z"/>
	<path d="M26.663,7.573c0-0.401,0.099-0.791,0.297-1.166s0.479-0.662,0.842-0.86c0.361-0.199,0.769-0.298,1.216-0.298
		c0.691,0,1.259,0.225,1.699,0.674c0.442,0.449,0.663,1.016,0.663,1.701c0,0.691-0.223,1.266-0.669,1.72
		c-0.446,0.455-1.009,0.683-1.685,0.683c-0.42,0-0.818-0.096-1.199-0.284c-0.38-0.189-0.669-0.467-0.867-0.833
		C26.762,8.545,26.663,8.099,26.663,7.573z M27.903,7.639c0,0.453,0.106,0.801,0.322,1.041c0.214,0.242,0.48,0.362,0.796,0.362
		c0.316,0,0.581-0.12,0.794-0.362c0.214-0.24,0.321-0.591,0.321-1.05c0-0.448-0.107-0.792-0.321-1.033
		c-0.213-0.241-0.478-0.361-0.794-0.361c-0.315,0-0.582,0.12-0.796,0.361C28.01,6.838,27.903,7.185,27.903,7.639z"/>
	<path d="M35.335,9.924V9.239c-0.166,0.245-0.385,0.437-0.655,0.577c-0.272,0.14-0.558,0.211-0.859,0.211
		c-0.307,0-0.582-0.068-0.827-0.202C32.75,9.689,32.574,9.5,32.465,9.257s-0.163-0.581-0.163-1.012V5.353h1.209v2.1
		c0,0.643,0.021,1.036,0.066,1.182c0.045,0.145,0.125,0.261,0.243,0.345c0.117,0.084,0.267,0.127,0.448,0.127
		c0.206,0,0.392-0.057,0.555-0.169c0.163-0.115,0.276-0.256,0.336-0.424c0.06-0.167,0.091-0.579,0.091-1.232V5.353h1.209v4.571
		H35.335z"/>
	<path d="M41.903,9.924H40.78V9.252c-0.187,0.262-0.407,0.456-0.661,0.584s-0.51,0.191-0.769,0.191c-0.524,0-0.975-0.212-1.35-0.636
		C37.627,8.97,37.44,8.379,37.44,7.621c0-0.774,0.182-1.363,0.547-1.767c0.364-0.403,0.824-0.605,1.382-0.605
		c0.51,0,0.951,0.213,1.325,0.637V3.614h1.209V9.924z M38.676,7.539c0,0.488,0.068,0.842,0.202,1.059
		c0.194,0.316,0.468,0.474,0.817,0.474c0.278,0,0.515-0.118,0.71-0.354s0.293-0.591,0.293-1.062c0-0.523-0.095-0.903-0.284-1.134
		s-0.432-0.346-0.729-0.346c-0.285,0-0.525,0.113-0.719,0.341C38.772,6.745,38.676,7.086,38.676,7.539z"/>
	<path d="M42.779,7.871l1.241-0.121c0.074,0.416,0.226,0.722,0.453,0.917c0.229,0.194,0.537,0.293,0.924,0.293
		c0.409,0,0.719-0.087,0.928-0.261c0.208-0.174,0.312-0.377,0.312-0.608c0-0.149-0.044-0.276-0.132-0.381
		c-0.087-0.105-0.24-0.196-0.458-0.274c-0.148-0.051-0.489-0.144-1.021-0.274c-0.682-0.17-1.161-0.379-1.437-0.624
		c-0.387-0.347-0.581-0.771-0.581-1.271c0-0.321,0.09-0.622,0.273-0.901c0.182-0.28,0.444-0.493,0.787-0.64s0.757-0.219,1.242-0.219
		c0.792,0,1.388,0.173,1.788,0.521c0.399,0.348,0.611,0.811,0.63,1.39l-1.273,0.056c-0.055-0.324-0.172-0.558-0.351-0.7
		c-0.18-0.142-0.448-0.212-0.808-0.212c-0.369,0-0.66,0.077-0.869,0.229c-0.135,0.097-0.201,0.228-0.201,0.392
		c0,0.149,0.063,0.277,0.188,0.382c0.161,0.135,0.551,0.276,1.171,0.423c0.619,0.146,1.077,0.298,1.375,0.453
		c0.297,0.156,0.529,0.37,0.697,0.642c0.168,0.271,0.252,0.606,0.252,1.005c0,0.361-0.101,0.7-0.302,1.015
		c-0.201,0.316-0.484,0.551-0.852,0.704c-0.369,0.153-0.826,0.23-1.373,0.23c-0.798,0-1.411-0.184-1.838-0.552
		C43.119,9.113,42.863,8.577,42.779,7.871z"/>
	<path d="M48.939,5.353h1.128v0.672c0.146-0.23,0.345-0.417,0.594-0.56c0.25-0.144,0.526-0.216,0.83-0.216
		c0.531,0,0.982,0.208,1.352,0.625c0.37,0.416,0.556,0.996,0.556,1.738c0,0.764-0.187,1.357-0.56,1.779
		c-0.373,0.424-0.824,0.636-1.356,0.636c-0.252,0-0.479-0.05-0.686-0.15c-0.205-0.101-0.422-0.273-0.648-0.517v2.303h-1.209V5.353z
		 M50.136,7.561c0,0.514,0.103,0.894,0.306,1.139c0.204,0.245,0.453,0.368,0.745,0.368c0.281,0,0.515-0.112,0.701-0.337
		c0.187-0.227,0.28-0.596,0.28-1.109c0-0.479-0.097-0.835-0.289-1.067s-0.431-0.349-0.714-0.349c-0.296,0-0.542,0.114-0.737,0.343
		C50.233,6.776,50.136,7.113,50.136,7.561z"/>
	<path d="M55.263,6.747L54.165,6.55c0.123-0.441,0.335-0.77,0.637-0.981c0.301-0.213,0.749-0.319,1.343-0.319
		c0.54,0,0.941,0.064,1.205,0.191c0.264,0.128,0.449,0.291,0.558,0.487c0.107,0.196,0.161,0.558,0.161,1.083l-0.013,1.412
		c0,0.399,0.019,0.697,0.058,0.889c0.039,0.189,0.111,0.395,0.218,0.612h-1.197c-0.031-0.08-0.07-0.2-0.116-0.357
		c-0.019-0.071-0.033-0.119-0.043-0.142c-0.206,0.2-0.428,0.352-0.663,0.452s-0.485,0.15-0.753,0.15
		c-0.471,0-0.841-0.128-1.111-0.383c-0.271-0.256-0.408-0.579-0.408-0.969c0-0.258,0.063-0.488,0.186-0.69
		c0.124-0.203,0.297-0.357,0.519-0.465c0.223-0.108,0.543-0.202,0.962-0.282c0.565-0.105,0.958-0.206,1.176-0.297V6.82
		c0-0.232-0.058-0.396-0.173-0.497c-0.115-0.099-0.331-0.147-0.649-0.147c-0.216,0-0.383,0.042-0.503,0.127
		C55.435,6.388,55.337,6.536,55.263,6.747z M56.881,7.729c-0.155,0.052-0.401,0.113-0.736,0.186
		c-0.336,0.071-0.555,0.142-0.658,0.21c-0.159,0.112-0.237,0.255-0.237,0.427c0,0.17,0.063,0.316,0.189,0.438
		c0.126,0.124,0.287,0.186,0.482,0.186c0.219,0,0.426-0.071,0.624-0.215c0.147-0.109,0.242-0.242,0.288-0.401
		c0.031-0.103,0.048-0.299,0.048-0.589V7.729z"/>
	<path d="M63.246,6.704L62.055,6.92c-0.041-0.238-0.133-0.418-0.273-0.537c-0.143-0.121-0.326-0.182-0.554-0.182
		c-0.3,0-0.541,0.104-0.722,0.312c-0.178,0.208-0.269,0.556-0.269,1.044c0,0.542,0.092,0.926,0.274,1.148
		c0.182,0.225,0.426,0.337,0.733,0.337c0.229,0,0.418-0.065,0.563-0.196c0.146-0.13,0.25-0.355,0.311-0.673l1.188,0.201
		c-0.124,0.545-0.36,0.957-0.71,1.235s-0.819,0.418-1.407,0.418c-0.669,0-1.202-0.211-1.6-0.632
		c-0.396-0.423-0.596-1.007-0.596-1.753c0-0.754,0.199-1.342,0.599-1.762C59.99,5.46,60.53,5.25,61.21,5.25
		c0.557,0,1,0.12,1.328,0.36C62.866,5.849,63.103,6.214,63.246,6.704z"/>
	<path d="M66.809,8.469l1.206,0.203c-0.155,0.441-0.4,0.778-0.735,1.009c-0.333,0.231-0.751,0.347-1.254,0.347
		c-0.794,0-1.383-0.261-1.765-0.778c-0.301-0.417-0.452-0.941-0.452-1.575c0-0.759,0.199-1.352,0.595-1.781
		C64.8,5.464,65.3,5.25,65.904,5.25c0.681,0,1.217,0.225,1.61,0.674s0.582,1.136,0.564,2.063h-3.03
		c0.008,0.358,0.106,0.637,0.293,0.837c0.186,0.199,0.419,0.3,0.697,0.3c0.189,0,0.348-0.053,0.478-0.155
		C66.646,8.864,66.743,8.698,66.809,8.469z M66.878,7.247c-0.008-0.35-0.1-0.616-0.271-0.799c-0.173-0.182-0.383-0.272-0.628-0.272
		c-0.265,0-0.482,0.096-0.656,0.288c-0.171,0.192-0.256,0.453-0.253,0.783H66.878z"/>
</g>
</svg>
