<svg aria-hidden="true" style="position: absolute; width: 0; height: 0; overflow: hidden;" version="1.1" xmlns="http://www.w3.org/2000/svg" xmlns:xlink="http://www.w3.org/1999/xlink">
<defs>
<symbol id="icon-logo" viewBox="0 0 177 32">
<title>logo</title>
<path d="M32.096 10.113c-0.71-6.113-5.531-10.113-11.363-10.113-5.817 0-10.625 3.979-11.358 10.066-5.297 0.803-9.375 5.331-9.375 10.859 0 6.56 6.638 16.473 22.038 6.654 2.004 2.711 5.25 4.421 8.904 4.421 6.084 0 11.044-4.959 11.044-11.046 0-4.073-2.846-10.552-9.89-10.841zM20.733 2.331c4.577 0 8.366 3.238 9.024 7.906-2.76 0.379-6.030 1.609-9.895 4.062-1.882-2.495-4.803-4.127-8.109-4.335 0.762-4.522 4.494-7.634 8.98-7.634zM30.942 29.669c-2.81 0-5.31-1.359-6.901-3.42 1.611-1.11 2.95-2.129 3.766-2.778 0.577 0.45 1.294 0.72 2.092 0.72 1.869 0 3.405-1.523 3.405-3.394 0-1.877-1.536-3.41-3.405-3.41-1.877 0-3.4 1.533-3.4 3.41 0 0.229 0.021 0.465 0.070 0.684-0.938 0.751-2.233 1.736-3.698 2.758-0.645 0.447-1.315 0.892-2.006 1.346-14.074 8.894-18.537-0.036-18.537-4.629 0-4.811 3.914-8.694 8.715-8.694 2.763 0 5.222 1.352 6.815 3.376-1.57 1.092-2.869 2.084-3.68 2.724-0.577-0.447-1.294-0.733-2.092-0.733-1.874 0-3.405 1.52-3.405 3.397s1.531 3.405 3.405 3.405c1.877 0 3.4-1.528 3.4-3.405 0-0.229-0.021-0.465-0.070-0.684 0.928-0.746 2.196-1.71 3.639-2.713 0.637-0.447 1.315-0.892 2.009-1.336 14.058-8.99 18.594-0.062 18.594 4.58 0 4.803-3.914 8.798-8.715 8.798zM28.834 20.795c0-0.59 0.476-1.073 1.066-1.073s1.073 0.486 1.073 1.073c0 0.587-0.486 1.066-1.073 1.066-0.593 0-1.066-0.478-1.066-1.066zM13.154 21.024c0 0.593-0.476 1.073-1.066 1.073s-1.073-0.483-1.073-1.073 0.486-1.066 1.073-1.066c0.59 0 1.066 0.473 1.066 1.066z"></path>
<path d="M57.632 19.763l3.21 1.021c-0.491 1.788-1.31 3.116-2.454 3.984-1.146 0.871-2.599 1.305-4.359 1.305-2.178 0-3.966-0.743-5.37-2.23-1.401-1.489-2.103-3.522-2.103-6.103 0-2.729 0.704-4.85 2.113-6.36s3.262-2.264 5.562-2.264c2.004 0 3.631 0.593 4.886 1.78 0.746 0.699 1.305 1.708 1.679 3.018l-3.28 0.782c-0.195-0.85-0.598-1.52-1.216-2.014-0.613-0.491-1.359-0.738-2.24-0.738-1.216 0-2.201 0.437-2.96 1.307-0.754 0.873-1.133 2.287-1.133 4.239 0 2.071 0.372 3.548 1.118 4.426 0.743 0.884 1.715 1.323 2.908 1.323 0.881 0 1.637-0.278 2.272-0.837 0.637-0.561 1.089-1.44 1.367-2.641z"></path>
<path d="M63.66 25.793v-16.4h3.145v16.4h-3.145z"></path>
<path d="M69.3 19.683c0-1.042 0.257-2.056 0.772-3.031s1.245-1.721 2.188-2.235c0.938-0.517 1.999-0.775 3.16-0.775 1.796 0 3.272 0.585 4.416 1.752 1.149 1.167 1.723 2.641 1.723 4.421 0 1.796-0.58 3.29-1.739 4.47-1.159 1.183-2.622 1.775-4.379 1.775-1.092 0-2.126-0.25-3.116-0.738-0.988-0.491-1.739-1.214-2.253-2.165-0.515-0.949-0.772-2.108-0.772-3.475zM72.522 19.854c0 1.177 0.275 2.082 0.837 2.706 0.556 0.629 1.248 0.941 2.069 0.941s1.51-0.312 2.064-0.941c0.556-0.624 0.834-1.536 0.834-2.729 0-1.164-0.278-2.058-0.834-2.685-0.554-0.626-1.242-0.938-2.064-0.938-0.819 0-1.513 0.312-2.069 0.938-0.559 0.626-0.837 1.528-0.837 2.708z"></path>
<path d="M91.839 25.793v-1.78c-0.431 0.637-1.001 1.136-1.702 1.5-0.707 0.364-1.45 0.548-2.233 0.548-0.798 0-1.513-0.177-2.149-0.525-0.634-0.353-1.092-0.845-1.375-1.476s-0.424-1.51-0.424-2.63v-7.517h3.142v5.458c0 1.671 0.055 2.693 0.172 3.072 0.117 0.377 0.325 0.678 0.632 0.897 0.304 0.218 0.694 0.33 1.164 0.33 0.535 0 1.019-0.148 1.442-0.439 0.424-0.299 0.717-0.665 0.873-1.102 0.156-0.434 0.237-1.505 0.237-3.202v-5.014h3.142v11.88h-2.921z"></path>
<path d="M108.91 25.793h-2.919v-1.747c-0.486 0.681-1.058 1.185-1.718 1.518s-1.326 0.496-1.999 0.496c-1.362 0-2.534-0.551-3.509-1.653-0.969-1.094-1.456-2.63-1.456-4.6 0-2.012 0.473-3.543 1.422-4.593 0.946-1.047 2.142-1.572 3.592-1.572 1.326 0 2.472 0.554 3.444 1.656v-5.905h3.142v16.4zM100.522 19.595c0 1.268 0.177 2.188 0.525 2.752 0.504 0.821 1.216 1.232 2.123 1.232 0.723 0 1.339-0.307 1.845-0.92s0.762-1.536 0.762-2.76c0-1.359-0.247-2.347-0.738-2.947s-1.123-0.899-1.895-0.899c-0.741 0-1.365 0.294-1.869 0.886s-0.754 1.479-0.754 2.656z"></path>
<path d="M111.186 20.457l3.225-0.314c0.192 1.081 0.587 1.877 1.177 2.383 0.595 0.504 1.396 0.762 2.402 0.762 1.063 0 1.869-0.226 2.412-0.678 0.541-0.452 0.811-0.98 0.811-1.58 0-0.387-0.114-0.717-0.343-0.99-0.226-0.273-0.624-0.509-1.19-0.712-0.385-0.133-1.271-0.374-2.654-0.712-1.773-0.442-3.018-0.985-3.735-1.622-1.006-0.902-1.51-2.004-1.51-3.303 0-0.834 0.234-1.617 0.71-2.342 0.473-0.728 1.154-1.281 2.045-1.663s1.968-0.569 3.228-0.569c2.058 0 3.608 0.45 4.647 1.354 1.037 0.904 1.588 2.108 1.637 3.613l-3.309 0.146c-0.143-0.842-0.447-1.45-0.912-1.819-0.468-0.369-1.164-0.551-2.1-0.551-0.959 0-1.715 0.2-2.259 0.595-0.351 0.252-0.522 0.593-0.522 1.019 0 0.387 0.164 0.72 0.489 0.993 0.418 0.351 1.432 0.717 3.044 1.099 1.609 0.379 2.799 0.775 3.574 1.177 0.772 0.405 1.375 0.962 1.812 1.669 0.437 0.704 0.655 1.575 0.655 2.612 0 0.938-0.263 1.819-0.785 2.638-0.522 0.821-1.258 1.432-2.214 1.83-0.959 0.398-2.147 0.598-3.569 0.598-2.074 0-3.667-0.478-4.777-1.435-1.105-0.967-1.77-2.36-1.988-4.195z"></path>
<path d="M127.197 13.913h2.932v1.747c0.379-0.598 0.897-1.084 1.544-1.456 0.65-0.374 1.367-0.561 2.157-0.561 1.38 0 2.552 0.541 3.514 1.624 0.962 1.081 1.445 2.589 1.445 4.517 0 1.986-0.486 3.527-1.456 4.624-0.969 1.102-2.142 1.653-3.524 1.653-0.655 0-1.245-0.13-1.783-0.39-0.533-0.262-1.097-0.71-1.684-1.344v5.986h-3.142v-16.4zM130.308 19.652c0 1.336 0.268 2.324 0.795 2.96 0.53 0.637 1.177 0.956 1.936 0.956 0.73 0 1.339-0.291 1.822-0.876 0.486-0.59 0.728-1.549 0.728-2.882 0-1.245-0.252-2.17-0.751-2.773s-1.12-0.907-1.856-0.907c-0.769 0-1.409 0.296-1.916 0.892-0.507 0.59-0.759 1.466-0.759 2.63z"></path>
<path d="M143.634 17.536l-2.854-0.512c0.32-1.146 0.871-2.001 1.656-2.55 0.782-0.554 1.947-0.829 3.491-0.829 1.404 0 2.446 0.166 3.132 0.496 0.686 0.333 1.167 0.756 1.45 1.266 0.278 0.509 0.418 1.45 0.418 2.815l-0.034 3.67c0 1.037 0.049 1.812 0.151 2.311 0.101 0.491 0.288 1.027 0.567 1.591h-3.111c-0.081-0.208-0.182-0.52-0.302-0.928-0.049-0.185-0.086-0.309-0.112-0.369-0.535 0.52-1.112 0.915-1.723 1.175s-1.261 0.39-1.957 0.39c-1.224 0-2.186-0.333-2.888-0.995-0.704-0.665-1.060-1.505-1.060-2.519 0-0.671 0.164-1.268 0.483-1.793 0.322-0.528 0.772-0.928 1.349-1.209 0.58-0.281 1.411-0.525 2.5-0.733 1.469-0.273 2.49-0.535 3.057-0.772v-0.314c0-0.603-0.151-1.029-0.45-1.292-0.299-0.257-0.86-0.382-1.687-0.382-0.561 0-0.995 0.109-1.307 0.33-0.322 0.221-0.577 0.606-0.769 1.154zM147.839 20.088c-0.403 0.135-1.042 0.294-1.913 0.483-0.873 0.185-1.442 0.369-1.71 0.546-0.413 0.291-0.616 0.663-0.616 1.11 0 0.442 0.164 0.821 0.491 1.138 0.327 0.322 0.746 0.483 1.253 0.483 0.569 0 1.107-0.185 1.622-0.559 0.382-0.283 0.629-0.629 0.749-1.042 0.081-0.268 0.125-0.777 0.125-1.531v-0.629z"></path>
<path d="M164.382 17.424l-3.096 0.561c-0.107-0.619-0.346-1.086-0.71-1.396-0.372-0.314-0.847-0.473-1.44-0.473-0.78 0-1.406 0.27-1.877 0.811-0.463 0.541-0.699 1.445-0.699 2.713 0 1.409 0.239 2.407 0.712 2.984 0.473 0.585 1.107 0.876 1.905 0.876 0.595 0 1.086-0.169 1.463-0.509 0.379-0.338 0.65-0.923 0.808-1.749l3.088 0.522c-0.322 1.416-0.936 2.487-1.845 3.21s-2.129 1.086-3.657 1.086c-1.739 0-3.124-0.548-4.159-1.643-1.029-1.099-1.549-2.617-1.549-4.556 0-1.96 0.517-3.488 1.557-4.58 1.034-1.092 2.438-1.637 4.205-1.637 1.448 0 2.599 0.312 3.452 0.936 0.852 0.621 1.469 1.57 1.84 2.843z"></path>
<path d="M173.643 22.012l3.135 0.528c-0.403 1.146-1.040 2.022-1.91 2.622-0.865 0.6-1.952 0.902-3.259 0.902-2.064 0-3.595-0.678-4.587-2.022-0.782-1.084-1.175-2.446-1.175-4.094 0-1.973 0.517-3.514 1.546-4.629 1.029-1.118 2.329-1.674 3.899-1.674 1.77 0 3.163 0.585 4.185 1.752s1.513 2.953 1.466 5.362h-7.875c0.021 0.93 0.275 1.656 0.762 2.175 0.483 0.517 1.089 0.78 1.812 0.78 0.491 0 0.904-0.138 1.242-0.403 0.338-0.273 0.59-0.704 0.762-1.3zM173.822 18.836c-0.021-0.91-0.26-1.601-0.704-2.077-0.45-0.473-0.995-0.707-1.632-0.707-0.689 0-1.253 0.25-1.705 0.749-0.444 0.499-0.665 1.177-0.658 2.035h4.699z"></path>
</symbol>
<symbol id="icon-cloud-logo" viewBox="0 0 42 32">
<title>cloud-logo</title>
<path d="M32.095 10.113c-0.713-6.113-5.532-10.113-11.364-10.113-5.817 0-10.625 3.98-11.357 10.065-5.295 0.802-9.373 5.336-9.373 10.859 0 6.56 6.633 16.474 22.037 6.654 2.005 2.712 5.247 4.422 8.9 4.422 6.086 0 11.045-4.959 11.045-11.053 0-4.066-2.849-10.543-9.887-10.834zM20.731 2.332c4.575 0 8.365 3.237 9.021 7.909-2.757 0.379-6.032 1.606-9.893 4.061-1.88-2.497-4.803-4.128-8.112-4.335 0.766-4.524 4.497-7.635 8.983-7.635zM30.937 29.668c-2.806 0-5.309-1.36-6.895-3.419 1.609-1.112 2.946-2.13 3.762-2.783 0.575 0.451 1.298 0.723 2.091 0.723 1.873 0 3.405-1.523 3.405-3.397s-1.531-3.405-3.405-3.405-3.397 1.531-3.397 3.405c0 0.233 0.023 0.466 0.070 0.684-0.941 0.754-2.231 1.741-3.7 2.759-0.645 0.443-1.314 0.894-2.005 1.345-14.072 8.89-18.531-0.035-18.531-4.633 0-4.804 3.91-8.69 8.714-8.69 2.759 0 5.216 1.353 6.809 3.381-1.57 1.088-2.867 2.083-3.676 2.721-0.575-0.451-1.298-0.731-2.091-0.731-1.873 0-3.405 1.523-3.405 3.397s1.531 3.405 3.405 3.405 3.397-1.531 3.397-3.405c0-0.233-0.023-0.466-0.070-0.684 0.924-0.746 2.192-1.71 3.638-2.713 0.637-0.442 1.314-0.893 2.005-1.337 14.057-8.99 18.593-0.063 18.593 4.578-0.001 4.804-3.911 8.798-8.714 8.798zM28.83 20.792c0-0.591 0.474-1.073 1.065-1.073s1.073 0.482 1.073 1.073-0.482 1.065-1.073 1.065-1.065-0.475-1.065-1.065zM13.152 21.024c0 0.591-0.474 1.073-1.065 1.073s-1.073-0.482-1.073-1.073 0.482-1.065 1.073-1.065 1.065 0.475 1.065 1.065z"></path>
</symbol>
</defs>
</svg>
